<?xml version="1.0"?>
<svg width="640" height="480" xmlns="http://www.w3.org/2000/svg" xmlns:svg="http://www.w3.org/2000/svg">
 <!-- Created with SVG-edit - https://github.com/SVG-Edit/svgedit-->
 <g class="layer">
  <title>Layer 1</title>
  <path d="m388.927893,389.412598l3.764063,-37.428407l-44.29538,-6.513503c-112.146031,-16.489999 -222.074352,-86.414671 -283.281412,-180.193397c-10.981104,-16.824758 -18.330999,-33.034645 -16.333032,-36.022029c4.582937,-6.853269 116.25698,-61.414225 125.700888,-61.414225c3.852503,0 13.107,10.034514 20.565434,22.298956c31.809362,52.305407 114.131158,106.860295 172.091448,114.044598l23.498822,2.912881l-4.040346,-32.347275c-4.194374,-33.580744 -3.014752,-40.63224 6.796908,-40.63224c6.273961,0 193.565364,128.956322 198.91948,136.962809c4.06174,6.073562 -21.698492,28.605434 -113.929599,99.651028c-40.06285,30.859988 -77.426883,56.109245 -83.031383,56.109245c-8.970297,0 -9.73936,-4.479728 -6.425909,-37.428407l0.000018,-0.000034z" fill="#ffffff" id="svg_1" stroke="#ffffff" stroke-width="5"/>
 </g>
</svg>