<svg width="31" height="30" viewBox="0 0 31 30" fill="none" xmlns="http://www.w3.org/2000/svg">
<g clip-path="url(#clip0_18_34)">
<path d="M15.1249 30C23.3919 30 30.0937 23.2843 30.0937 15C30.0937 6.71573 23.3919 0 15.1249 0C6.85787 0 0.156128 6.71573 0.156128 15C0.156128 23.2843 6.85787 30 15.1249 30Z" fill="#ADAEB0"/>
<path fill-rule="evenodd" clip-rule="evenodd" d="M12.5782 14.694C13.395 14.3992 14.2567 14.2489 15.1249 14.25C15.996 14.25 16.8612 14.4 17.6715 14.694C18.4709 14.9817 19.2099 15.4157 19.851 15.974C20.4729 16.514 20.9773 17.1764 21.3329 17.92C21.4566 18.18 21.5355 18.543 21.5924 18.872C21.6532 19.225 21.7021 19.63 21.7421 20.027C21.8199 20.817 21.8608 21.623 21.8608 22H20.3639C20.3639 21.687 20.327 20.933 20.2522 20.174C20.2195 19.8239 20.1746 19.475 20.1174 19.128C20.0606 18.8 20.0077 18.62 19.9797 18.562C19.7123 18.004 19.3332 17.507 18.8661 17.102C18.3644 16.6668 17.7864 16.3288 17.1616 16.105C16.5084 15.8692 15.8192 15.7491 15.1249 15.75C14.4243 15.75 13.7318 15.871 13.0891 16.105C12.4639 16.3287 11.8857 16.6667 11.3837 17.102C10.9017 17.525 10.5245 18.022 10.27 18.562C10.242 18.62 10.1892 18.8 10.1323 19.128C10.0794 19.432 10.0345 19.798 9.99756 20.174C9.93577 20.7809 9.89848 21.3901 9.88579 22H8.38892C8.38892 21.623 8.42883 20.817 8.50767 20.027C8.54759 19.63 8.59648 19.225 8.65736 18.872C8.71424 18.543 8.79307 18.181 8.91681 17.92C9.27229 17.176 9.77671 16.5133 10.3987 15.973C11.0399 15.4151 11.7789 14.9814 12.5782 14.694ZM15.1249 11.5C15.7865 11.5 16.4211 11.2366 16.8889 10.7678C17.3568 10.2989 17.6197 9.66304 17.6197 9C17.6197 8.33696 17.3568 7.70107 16.8889 7.23223C16.4211 6.76339 15.7865 6.5 15.1249 6.5C14.4632 6.5 13.8286 6.76339 13.3608 7.23223C12.8929 7.70107 12.6301 8.33696 12.6301 9C12.6301 9.66304 12.8929 10.2989 13.3608 10.7678C13.8286 11.2366 14.4632 11.5 15.1249 11.5ZM15.1249 13C16.1835 13 17.1988 12.5786 17.9474 11.8284C18.696 11.0783 19.1165 10.0609 19.1165 9C19.1165 7.93913 18.696 6.92172 17.9474 6.17157C17.1988 5.42143 16.1835 5 15.1249 5C14.0662 5 13.0509 5.42143 12.3023 6.17157C11.5537 6.92172 11.1332 7.93913 11.1332 9C11.1332 10.0609 11.5537 11.0783 12.3023 11.8284C13.0509 12.5786 14.0662 13 15.1249 13Z" fill="white"/>
</g>
<defs>
<clipPath id="clip0_18_34">
<rect width="29.9375" height="30" fill="white" transform="translate(0.156128)"/>
</clipPath>
</defs>
</svg>
