<svg width="23" height="22" viewBox="0 0 23 22" fill="none" xmlns="http://www.w3.org/2000/svg">
<ellipse cx="11.6392" cy="11" rx="10.9771" ry="11" fill="#26B4FF"/>
<path d="M10.6965 13.1364V13.0767C10.7031 12.4437 10.7694 11.9399 10.8954 11.5653C11.0213 11.1908 11.2003 10.8875 11.4323 10.6555C11.6643 10.4235 11.9427 10.2098 12.2675 10.0142C12.4631 9.89489 12.6387 9.75402 12.7945 9.59162C12.9503 9.4259 13.0729 9.23532 13.1624 9.01989C13.2552 8.80445 13.3016 8.56581 13.3016 8.30398C13.3016 7.97917 13.2254 7.69744 13.0729 7.45881C12.9205 7.22017 12.7166 7.03622 12.4614 6.90696C12.2062 6.7777 11.9228 6.71307 11.6113 6.71307C11.3395 6.71307 11.0777 6.76941 10.8258 6.8821C10.5739 6.99479 10.3634 7.17211 10.1944 7.41406C10.0253 7.65601 9.92756 7.97254 9.90104 8.36364H8.6482C8.67471 7.80019 8.82055 7.31794 9.0857 6.9169C9.35417 6.51586 9.70715 6.20928 10.1446 5.99716C10.5855 5.78504 11.0743 5.67898 11.6113 5.67898C12.1946 5.67898 12.7017 5.79498 13.1326 6.02699C13.5668 6.259 13.9015 6.57718 14.1368 6.98153C14.3755 7.38589 14.4948 7.84659 14.4948 8.36364C14.4948 8.72822 14.4384 9.058 14.3258 9.35298C14.2164 9.64796 14.0573 9.91146 13.8485 10.1435C13.643 10.3755 13.3944 10.581 13.1027 10.7599C12.8111 10.9422 12.5774 11.1345 12.4018 11.3366C12.2261 11.5355 12.0985 11.7725 12.0189 12.0476C11.9394 12.3227 11.8963 12.6657 11.8897 13.0767V13.1364H10.6965ZM11.3329 16.0795C11.0876 16.0795 10.8771 15.9917 10.7015 15.8161C10.5258 15.6404 10.438 15.4299 10.438 15.1847C10.438 14.9394 10.5258 14.7289 10.7015 14.5533C10.8771 14.3776 11.0876 14.2898 11.3329 14.2898C11.5781 14.2898 11.7886 14.3776 11.9643 14.5533C12.1399 14.7289 12.2277 14.9394 12.2277 15.1847C12.2277 15.3471 12.1863 15.4962 12.1035 15.6321C12.0239 15.768 11.9162 15.8774 11.7803 15.9602C11.6477 16.0398 11.4986 16.0795 11.3329 16.0795Z" fill="white"/>
</svg>
