<svg version="1.1" xmlns="http://www.w3.org/2000/svg" xmlns:xlink="http://www.w3.org/1999/xlink" width="63" height="63" viewBox="0,0,256,256"><g fill="#ffffff" fill-rule="nonzero" stroke="none" stroke-width="1" stroke-linecap="butt" stroke-linejoin="miter" stroke-miterlimit="10" stroke-dasharray="" stroke-dashoffset="0" font-family="none" font-weight="none" font-size="none" text-anchor="none" style="mix-blend-mode: normal"><g transform="translate(-0.00005,0) scale(4.06349,4.06349)"><path d="M43.4414,31.5l17.9102,-17.7859c2.1979,-2.1826 2.1979,-5.72125 0,-7.9056l-3.9804,-3.95282c-2.1979,-2.18257 -5.7613,-2.18257 -7.9609,0l-17.9103,17.78592l-17.9103,-17.78592c-2.1978,-2.18257 -5.76123,-2.18257 -7.96086,0l-3.98046,3.95282c-2.19784,2.18257 -2.19784,5.7213 0,7.9056l17.91022,17.7859l-17.91022,17.7859c-2.19784,2.1826 -2.19784,5.7212 0,7.9056l3.98046,3.9528c2.19784,2.1826 5.76306,2.1826 7.96086,0l17.9103,-17.7859l17.9103,17.7859c2.1978,2.1826 5.763,2.1826 7.9609,0l3.9804,-3.9528c2.1979,-2.1826 2.1979,-5.7213 0,-7.9056z"></path></g></g></svg>