<svg width="23" height="22" viewBox="0 0 23 22" fill="none" xmlns="http://www.w3.org/2000/svg">
<ellipse cx="11.5685" cy="11" rx="10.9771" ry="11" fill="#02BC77"/>
<path d="M10.6257 13.1364V13.0767C10.6323 12.4437 10.6986 11.9399 10.8246 11.5653C10.9505 11.1908 11.1295 10.8875 11.3615 10.6555C11.5935 10.4235 11.8719 10.2098 12.1967 10.0142C12.3923 9.89489 12.5679 9.75402 12.7237 9.59162C12.8795 9.4259 13.0021 9.23532 13.0916 9.01989C13.1844 8.80445 13.2308 8.56581 13.2308 8.30398C13.2308 7.97917 13.1546 7.69744 13.0021 7.45881C12.8497 7.22017 12.6458 7.03622 12.3906 6.90696C12.1354 6.7777 11.852 6.71307 11.5405 6.71307C11.2687 6.71307 11.0068 6.76941 10.755 6.8821C10.5031 6.99479 10.2926 7.17211 10.1236 7.41406C9.95453 7.65601 9.85675 7.97254 9.83024 8.36364H8.5774C8.60391 7.80019 8.74975 7.31794 9.0149 6.9169C9.28336 6.51586 9.63635 6.20928 10.0738 5.99716C10.5147 5.78504 11.0035 5.67898 11.5405 5.67898C12.1238 5.67898 12.6309 5.79498 13.0618 6.02699C13.496 6.259 13.8307 6.57718 14.066 6.98153C14.3047 7.38589 14.424 7.84659 14.424 8.36364C14.424 8.72822 14.3676 9.058 14.255 9.35298C14.1456 9.64796 13.9865 9.91146 13.7777 10.1435C13.5722 10.3755 13.3236 10.581 13.0319 10.7599C12.7403 10.9422 12.5066 11.1345 12.3309 11.3366C12.1553 11.5355 12.0277 11.7725 11.9481 12.0476C11.8686 12.3227 11.8255 12.6657 11.8189 13.0767V13.1364H10.6257ZM11.2621 16.0795C11.0168 16.0795 10.8063 15.9917 10.6307 15.8161C10.455 15.6404 10.3672 15.4299 10.3672 15.1847C10.3672 14.9394 10.455 14.7289 10.6307 14.5533C10.8063 14.3776 11.0168 14.2898 11.2621 14.2898C11.5073 14.2898 11.7178 14.3776 11.8934 14.5533C12.0691 14.7289 12.1569 14.9394 12.1569 15.1847C12.1569 15.3471 12.1155 15.4962 12.0327 15.6321C11.9531 15.768 11.8454 15.8774 11.7095 15.9602C11.5769 16.0398 11.4278 16.0795 11.2621 16.0795Z" fill="white"/>
</svg>
