<svg width="23" height="22" viewBox="0 0 23 22" fill="none" xmlns="http://www.w3.org/2000/svg">
<ellipse cx="11.4977" cy="11" rx="10.9771" ry="11" fill="#B5183E"/>
<path d="M10.5549 13.1364V13.0767C10.5615 12.4437 10.6278 11.9399 10.7538 11.5653C10.8797 11.1908 11.0587 10.8875 11.2907 10.6555C11.5227 10.4235 11.8011 10.2098 12.1259 10.0142C12.3215 9.89489 12.4971 9.75402 12.6529 9.59162C12.8087 9.4259 12.9313 9.23532 13.0208 9.01989C13.1136 8.80445 13.16 8.56581 13.16 8.30398C13.16 7.97917 13.0838 7.69744 12.9313 7.45881C12.7789 7.22017 12.575 7.03622 12.3198 6.90696C12.0646 6.7777 11.7812 6.71307 11.4697 6.71307C11.1979 6.71307 10.936 6.76941 10.6842 6.8821C10.4323 6.99479 10.2218 7.17211 10.0528 7.41406C9.88373 7.65601 9.78595 7.97254 9.75944 8.36364H8.5066C8.53311 7.80019 8.67895 7.31794 8.9441 6.9169C9.21256 6.51586 9.56555 6.20928 10.003 5.99716C10.4439 5.78504 10.9327 5.67898 11.4697 5.67898C12.053 5.67898 12.5601 5.79498 12.991 6.02699C13.4252 6.259 13.7599 6.57718 13.9952 6.98153C14.2339 7.38589 14.3532 7.84659 14.3532 8.36364C14.3532 8.72822 14.2968 9.058 14.1842 9.35298C14.0748 9.64796 13.9157 9.91146 13.7069 10.1435C13.5014 10.3755 13.2528 10.581 12.9611 10.7599C12.6695 10.9422 12.4358 11.1345 12.2601 11.3366C12.0845 11.5355 11.9569 11.7725 11.8773 12.0476C11.7978 12.3227 11.7547 12.6657 11.7481 13.0767V13.1364H10.5549ZM11.1913 16.0795C10.946 16.0795 10.7355 15.9917 10.5599 15.8161C10.3842 15.6404 10.2964 15.4299 10.2964 15.1847C10.2964 14.9394 10.3842 14.7289 10.5599 14.5533C10.7355 14.3776 10.946 14.2898 11.1913 14.2898C11.4365 14.2898 11.647 14.3776 11.8226 14.5533C11.9983 14.7289 12.0861 14.9394 12.0861 15.1847C12.0861 15.3471 12.0447 15.4962 11.9619 15.6321C11.8823 15.768 11.7746 15.8774 11.6387 15.9602C11.5061 16.0398 11.357 16.0795 11.1913 16.0795Z" fill="white"/>
</svg>
