<svg width="22" height="24" viewBox="0 0 22 24" fill="none" xmlns="http://www.w3.org/2000/svg">
<ellipse cx="10.9771" cy="11.6356" rx="10.9771" ry="11.6356" fill="#949494"/>
<path d="M10.0344 13.3675V13.3078C10.041 12.6748 10.1073 12.171 10.2332 11.7965C10.3592 11.4219 10.5382 11.1187 10.7702 10.8866C11.0022 10.6546 11.2806 10.4409 11.6054 10.2453C11.801 10.126 11.9766 9.98513 12.1324 9.82273C12.2882 9.65701 12.4108 9.46643 12.5003 9.251C12.5931 9.03556 12.6395 8.79692 12.6395 8.53509C12.6395 8.21028 12.5633 7.92855 12.4108 7.68992C12.2583 7.45128 12.0545 7.26733 11.7993 7.13807C11.5441 7.00881 11.2607 6.94418 10.9492 6.94418C10.6774 6.94418 10.4155 7.00052 10.1636 7.11321C9.91175 7.2259 9.70129 7.40322 9.53225 7.64517C9.36322 7.88712 9.26545 8.20365 9.23893 8.59475H7.98609C8.01261 8.0313 8.15844 7.54905 8.42359 7.14801C8.69206 6.74697 9.04504 6.44039 9.48254 6.22827C9.92335 6.01615 10.4122 5.91009 10.9492 5.91009C11.5325 5.91009 12.0396 6.02609 12.4705 6.2581C12.9047 6.49011 13.2394 6.80829 13.4747 7.21264C13.7134 7.617 13.8327 8.0777 13.8327 8.59475C13.8327 8.95933 13.7763 9.28911 13.6636 9.58409C13.5543 9.87907 13.3952 10.1426 13.1864 10.3746C12.9809 10.6066 12.7323 10.8121 12.4406 10.9911C12.149 11.1733 11.9153 11.3656 11.7396 11.5678C11.564 11.7666 11.4364 12.0036 11.3568 12.2787C11.2773 12.5538 11.2342 12.8968 11.2276 13.3078V13.3675H10.0344ZM10.6707 16.3107C10.4255 16.3107 10.215 16.2228 10.0394 16.0472C9.86369 15.8715 9.77586 15.661 9.77586 15.4158C9.77586 15.1705 9.86369 14.96 10.0394 14.7844C10.215 14.6087 10.4255 14.5209 10.6707 14.5209C10.916 14.5209 11.1265 14.6087 11.3021 14.7844C11.4778 14.96 11.5656 15.1705 11.5656 15.4158C11.5656 15.5782 11.5242 15.7273 11.4413 15.8632C11.3618 15.9991 11.2541 16.1085 11.1182 16.1913C10.9856 16.2709 10.8365 16.3107 10.6707 16.3107Z" fill="white"/>
</svg>
