<svg version="1.1" xmlns="http://www.w3.org/2000/svg" xmlns:xlink="http://www.w3.org/1999/xlink" width="83" height="110" viewBox="0,0,193.15625,256"><g fill="#ffffff" fill-rule="nonzero" stroke="none" stroke-width="1" stroke-linecap="butt" stroke-linejoin="miter" stroke-miterlimit="10" stroke-dasharray="" stroke-dashoffset="0" font-family="none" font-weight="none" font-size="none" text-anchor="none" style="mix-blend-mode: normal"><g transform="translate(-0.00369,0) scale(2.32727,2.32727)"><path d="M48.4167,29.2188v-29.2188h-43.2292c-2.87474,0 -5.1875,2.29883 -5.1875,5.15625v99.68775c0,2.857 2.31276,5.156 5.1875,5.156h72.625c2.8747,0 5.1875,-2.299 5.1875,-5.156v-70.469h-29.3958c-2.8532,0 -5.1875,-2.3203 -5.1875,-5.1562zM62.25,79.9219c0,1.4179 -1.1672,2.5781 -2.5938,2.5781h-36.3125c-1.4265,0 -2.5937,-1.1602 -2.5937,-2.5781v-1.7188c0,-1.4179 1.1672,-2.5781 2.5937,-2.5781h36.3125c1.4266,0 2.5938,1.1602 2.5938,2.5781zM62.25,66.1719c0,1.4179 -1.1672,2.5781 -2.5938,2.5781h-36.3125c-1.4265,0 -2.5937,-1.1602 -2.5937,-2.5781v-1.7188c0,-1.4179 1.1672,-2.5781 2.5937,-2.5781h36.3125c1.4266,0 2.5938,1.1602 2.5938,2.5781zM62.25,50.7031v1.7188c0,1.4179 -1.1672,2.5781 -2.5938,2.5781h-36.3125c-1.4265,0 -2.5937,-1.1602 -2.5937,-2.5781v-1.7188c0,-1.4179 1.1672,-2.5781 2.5937,-2.5781h36.3125c1.4266,0 2.5938,1.1602 2.5938,2.5781zM83,26.1895v1.3105h-27.6667v-27.5h1.3185c1.3834,0 2.7018,0.53711 3.6745,1.50391l21.1607,21.05469c0.9726,0.9668 1.513,2.2773 1.513,3.6309z"></path></g></g></svg>