<svg version="1.1" xmlns="http://www.w3.org/2000/svg" xmlns:xlink="http://www.w3.org/1999/xlink" width="118" height="84" viewBox="0,0,256,182.23438"><g fill="#ffffff" fill-rule="nonzero" stroke="none" stroke-width="1" stroke-linecap="butt" stroke-linejoin="miter" stroke-miterlimit="10" stroke-dasharray="" stroke-dashoffset="0" font-family="none" font-weight="none" font-size="none" text-anchor="none" style="mix-blend-mode: normal"><g transform="translate(0,-0.00146) scale(2.16949,2.16949)"><path d="M17.7,36.125c6.5084,0 11.8,-5.2691 11.8,-11.75c0,-6.4809 -5.2916,-11.75 -11.8,-11.75c-6.5084,0 -11.8,5.2691 -11.8,11.75c0,6.4809 5.2916,11.75 11.8,11.75zM100.3,36.125c6.508,0 11.8,-5.2691 11.8,-11.75c0,-6.4809 -5.292,-11.75 -11.8,-11.75c-6.5084,0 -11.8,5.2691 -11.8,11.75c0,6.4809 5.2916,11.75 11.8,11.75zM106.2,42h-11.8c-3.245,0 -6.1766,1.3035 -8.3153,3.4148c7.4303,4.0575 12.7034,11.3829 13.8466,20.0852h12.1687c3.263,0 5.9,-2.6254 5.9,-5.875v-5.875c0,-6.4809 -5.292,-11.75 -11.8,-11.75zM59,42c11.4128,0 20.65,-9.198 20.65,-20.5625c0,-11.3645 -9.2372,-20.5625 -20.65,-20.5625c-11.4128,0 -20.65,9.198 -20.65,20.5625c0,11.3645 9.2372,20.5625 20.65,20.5625zM73.16,47.875h-1.5303c-3.835,1.8359 -8.0941,2.9375 -12.6297,2.9375c-4.5356,0 -8.7762,-1.1016 -12.6297,-2.9375h-1.5303c-11.7262,0 -21.24,9.4734 -21.24,21.15v5.2875c0,4.8652 3.9641,8.8125 8.85,8.8125h53.1c4.8859,0 8.85,-3.9473 8.85,-8.8125v-5.2875c0,-11.6766 -9.5138,-21.15 -21.24,-21.15zM31.9153,45.4148c-2.1387,-2.1113 -5.0703,-3.4148 -8.3153,-3.4148h-11.8c-6.50844,0 -11.8,5.2691 -11.8,11.75v5.875c0,3.2496 2.63656,5.875 5.9,5.875h12.1503c1.1616,-8.7023 6.4347,-16.0277 13.865,-20.0852z"></path></g></g></svg>