<svg version="1.1" xmlns="http://www.w3.org/2000/svg" xmlns:xlink="http://www.w3.org/1999/xlink" width="106" height="94" viewBox="0,0,256,227.01563"><g fill="#ffffff" fill-rule="nonzero" stroke="none" stroke-width="1" stroke-linecap="butt" stroke-linejoin="miter" stroke-miterlimit="10" stroke-dasharray="" stroke-dashoffset="0" font-family="none" font-weight="none" font-size="none" text-anchor="none" style="mix-blend-mode: normal"><g transform="translate(0,-0.00162) scale(2.41509,2.41509)"><path d="M53,0.625c-29.2715,0 -53,26.6946 -53,59.625c0,10.9312 2.6224,21.171 7.18813,29.9781c1.03239,1.9917 2.99967,3.1469 5.04967,3.1469h81.5244c2.05,0 4.0173,-1.1552 5.0497,-3.1469c4.5661,-8.8071 7.1881,-19.0469 7.1881,-29.9781c0,-32.9304 -23.7285,-59.625 -53,-59.625zM53,13.875c2.707,0 4.8915,2.0972 5.5797,4.8963c-0.2042,0.4679 -0.4858,0.8757 -0.6349,1.3809l-1.6967,5.7285c-0.9441,0.7226 -2.0188,1.2443 -3.2463,1.2443c-3.2517,0 -5.8888,-2.9668 -5.8888,-6.625c0,-3.6582 2.6352,-6.625 5.887,-6.625zM17.6667,73.5c-3.2518,0 -5.8889,-2.9668 -5.8889,-6.625c0,-3.6582 2.6371,-6.625 5.8889,-6.625c3.2517,0 5.8889,2.9668 5.8889,6.625c0,3.6582 -2.6372,6.625 -5.8889,6.625zM26.5,40.375c-3.2518,0 -5.8889,-2.9668 -5.8889,-6.625c0,-3.6582 2.6371,-6.625 5.8889,-6.625c3.2518,0 5.8889,2.9668 5.8889,6.625c0,3.6582 -2.6371,6.625 -5.8889,6.625zM71.9125,25.3839l-11.2864,38.0937c2.5194,2.4306 4.1517,5.9936 4.1517,10.0224c0,2.4264 -0.622,4.6686 -1.6342,6.625h-20.2872c-1.0122,-1.9564 -1.6342,-4.1986 -1.6342,-6.625c0,-7.0266 4.8768,-12.7179 11.0233,-13.1651l11.2882,-38.0958c0.7674,-2.6004 3.2629,-4.0268 5.5871,-3.1407c2.3133,0.8675 3.561,3.6831 2.7917,6.2855zM74.6104,37.2261l2.8561,-9.6373c0.6386,-0.2671 1.3121,-0.4617 2.0335,-0.4617c3.2518,0 5.8889,2.9667 5.8889,6.625c0,3.6582 -2.6371,6.625 -5.8889,6.625c-2.0942,-0.0021 -3.8443,-1.3002 -4.8896,-3.151zM88.3333,73.5c-3.2517,0 -5.8889,-2.9668 -5.8889,-6.625c0,-3.6582 2.6372,-6.625 5.8889,-6.625c3.2518,0 5.8889,2.9668 5.8889,6.625c0,3.6582 -2.6371,6.625 -5.8889,6.625z"></path></g></g></svg>