<svg version="1.1" xmlns="http://www.w3.org/2000/svg" xmlns:xlink="http://www.w3.org/1999/xlink" width="87" height="116" viewBox="0,0,192,256"><g fill="#ffffff" fill-rule="nonzero" stroke="none" stroke-width="1" stroke-linecap="butt" stroke-linejoin="miter" stroke-miterlimit="10" stroke-dasharray="" stroke-dashoffset="0" font-family="none" font-weight="none" font-size="none" text-anchor="none" style="mix-blend-mode: normal"><g transform="translate(-0.00022,-0.00014) scale(2.2069,2.2069)"><path d="M67.522,48.5449l-2.772,-26.7949h9.5625c3.0031,0 5.4375,-2.4344 5.4375,-5.4375v-10.875c0,-3.00309 -2.4344,-5.4375 -5.4375,-5.4375h-61.625c-3.00309,0 -5.4375,2.43441 -5.4375,5.4375v10.875c0,3.0031 2.43441,5.4375 5.4375,5.4375h9.5625l-2.772,26.7949c-10.98984,5.1096 -19.478,14.272 -19.478,25.7676c0,3.0031 2.43441,5.4375 5.4375,5.4375h30.8125v23.564c0,0.281 0.0655,0.559 0.1914,0.811l5.4375,10.875c0.6664,1.332 2.5747,1.335 3.2424,0l5.4375,-10.875c0.1258,-0.252 0.1913,-0.53 0.1914,-0.811v-23.564h30.8125c3.0031,0 5.4375,-2.4344 5.4375,-5.4375c-0.0002,-11.5961 -8.6055,-20.7123 -19.4782,-25.7676z"></path></g></g></svg>