<svg version="1.1" xmlns="http://www.w3.org/2000/svg" xmlns:xlink="http://www.w3.org/1999/xlink" width="110" height="86" viewBox="0,0,256,200.14063"><g fill="#ffffff" fill-rule="nonzero" stroke="none" stroke-width="1" stroke-linecap="butt" stroke-linejoin="miter" stroke-miterlimit="10" stroke-dasharray="" stroke-dashoffset="0" font-family="none" font-weight="none" font-size="none" text-anchor="none" style="mix-blend-mode: normal"><g transform="translate(0,-0.00241) scale(2.32727,2.32727)"><path d="M79.4444,30.75c0,-16.9203 -17.7795,-30.625 -39.7222,-30.625c-21.9427,0 -39.7222,13.7047 -39.7222,30.625c0,6.5652 2.69271,12.6137 7.25694,17.6094c-2.55902,5.7804 -6.77951,10.3742 -6.8368,10.4316c-0.42014,0.4402 -0.53472,1.091 -0.28646,1.6653c0.24826,0.5742 0.78299,0.9187 1.3941,0.9187c6.98958,0 12.77602,-2.3543 16.93922,-4.7852c6.1493,3.0051 13.4254,4.7852 21.2552,4.7852c21.9427,0 39.7222,-13.7047 39.7222,-30.625zM102.743,72.8594c4.564,-4.9766 7.257,-11.0442 7.257,-17.6094c0,-12.8051 -10.217,-23.7727 -24.6927,-28.3473c0.1719,1.2633 0.2483,2.5457 0.2483,3.8473c0,20.2699 -20.5678,36.75 -45.8334,36.75c-2.0625,0 -4.0677,-0.1531 -6.0538,-0.3637c6.0156,11.0059 20.1476,18.7387 36.6094,18.7387c7.8298,0 15.1059,-1.7609 21.2552,-4.7852c4.1632,2.4309 9.95,4.7852 16.939,4.7852c0.611,0 1.165,-0.3637 1.394,-0.9187c0.249,-0.5551 0.134,-1.2059 -0.286,-1.6653c-0.057,-0.0574 -4.278,-4.632 -6.837,-10.4316z"></path></g></g></svg>