<svg version="1.1" xmlns="http://www.w3.org/2000/svg" xmlns:xlink="http://www.w3.org/1999/xlink" width="93" height="106" viewBox="0,0,224.59375,256"><g fill="#ffffff" fill-rule="nonzero" stroke="none" stroke-width="1" stroke-linecap="butt" stroke-linejoin="miter" stroke-miterlimit="10" stroke-dasharray="" stroke-dashoffset="0" font-family="none" font-weight="none" font-size="none" text-anchor="none" style="mix-blend-mode: normal"><g transform="translate(-0.00501,0) scale(2.41509,2.41509)"><path d="M0,96.0625c0,5.4865 4.46317,9.9375 9.96429,9.9375h73.07141c5.5011,0 9.9643,-4.451 9.9643,-9.9375v-56.3125h-93zM66.4286,55.4844c0,-1.3664 1.121,-2.4844 2.491,-2.4844h8.3036c1.3701,0 2.4911,1.118 2.4911,2.4844v8.2812c0,1.3664 -1.121,2.4844 -2.4911,2.4844h-8.3036c-1.37,0 -2.491,-1.118 -2.491,-2.4844zM66.4286,81.9844c0,-1.3664 1.121,-2.4844 2.491,-2.4844h8.3036c1.3701,0 2.4911,1.118 2.4911,2.4844v8.2812c0,1.3664 -1.121,2.4844 -2.4911,2.4844h-8.3036c-1.37,0 -2.491,-1.118 -2.491,-2.4844zM39.8571,55.4844c0,-1.3664 1.121,-2.4844 2.4911,-2.4844h8.3036c1.3701,0 2.4911,1.118 2.4911,2.4844v8.2812c0,1.3664 -1.121,2.4844 -2.4911,2.4844h-8.3036c-1.3701,0 -2.4911,-1.118 -2.4911,-2.4844zM39.8571,81.9844c0,-1.3664 1.121,-2.4844 2.4911,-2.4844h8.3036c1.3701,0 2.4911,1.118 2.4911,2.4844v8.2812c0,1.3664 -1.121,2.4844 -2.4911,2.4844h-8.3036c-1.3701,0 -2.4911,-1.118 -2.4911,-2.4844zM13.2857,55.4844c0,-1.3664 1.121,-2.4844 2.4911,-2.4844h8.3036c1.37,0 2.491,1.118 2.491,2.4844v8.2812c0,1.3664 -1.121,2.4844 -2.491,2.4844h-8.3036c-1.3701,0 -2.4911,-1.118 -2.4911,-2.4844zM13.2857,81.9844c0,-1.3664 1.121,-2.4844 2.4911,-2.4844h8.3036c1.37,0 2.491,1.118 2.491,2.4844v8.2812c0,1.3664 -1.121,2.4844 -2.491,2.4844h-8.3036c-1.3701,0 -2.4911,-1.118 -2.4911,-2.4844zM83.0357,13.25h-9.9643v-9.9375c0,-1.82188 -1.4946,-3.3125 -3.3214,-3.3125h-6.6429c-1.8267,0 -3.3214,1.49062 -3.3214,3.3125v9.9375h-26.5714v-9.9375c0,-1.82188 -1.4947,-3.3125 -3.3214,-3.3125h-6.6429c-1.8268,0 -3.3214,1.49062 -3.3214,3.3125v9.9375h-9.96431c-5.50112,0 -9.96429,4.4512 -9.96429,9.9375v9.9375h93v-9.9375c0,-5.4863 -4.4632,-9.9375 -9.9643,-9.9375z"></path></g></g></svg>