<svg version="1.1" xmlns="http://www.w3.org/2000/svg" xmlns:xlink="http://www.w3.org/1999/xlink" width="116" height="96" viewBox="0,0,256,211.85938"><g fill="#ffffff" fill-rule="nonzero" stroke="none" stroke-width="1" stroke-linecap="butt" stroke-linejoin="miter" stroke-miterlimit="10" stroke-dasharray="" stroke-dashoffset="0" font-family="none" font-weight="none" font-size="none" text-anchor="none" style="mix-blend-mode: normal"><g transform="translate(0,-0.00136) scale(2.2069,2.2069)"><path d="M10.875,0.875c-2.15087,0 -4.25344,0.63781 -6.04182,1.83277c-1.78839,1.19496 -3.18226,2.8934 -4.00536,4.88055c-0.8231,1.98714 -1.03846,4.17378 -0.61885,6.28328c0.41961,2.1096 1.45536,4.0473 2.97626,5.5682c1.52089,1.5209 3.45863,2.5566 5.56818,2.9762c2.1095,0.4197 4.2961,0.2043 6.2833,-0.6188c1.9871,-0.8231 3.6856,-2.217 4.8805,-4.0054c1.195,-1.7884 1.8328,-3.8909 1.8328,-6.0418c0,-2.88423 -1.1458,-5.65033 -3.1852,-7.68979c-2.0395,-2.03945 -4.8056,-3.18521 -7.6898,-3.18521zM10.875,37.125c-2.15087,0 -4.25344,0.6378 -6.04182,1.8328c-1.78839,1.1949 -3.18226,2.8934 -4.00536,4.8805c-0.8231,1.9872 -1.03846,4.1738 -0.61885,6.2833c0.41961,2.1096 1.45536,4.0473 2.97626,5.5682c1.52089,1.5209 3.45863,2.5566 5.56818,2.9762c2.1095,0.4197 4.2961,0.2043 6.2833,-0.6188c1.9871,-0.8231 3.6856,-2.217 4.8805,-4.0054c1.195,-1.7884 1.8328,-3.8909 1.8328,-6.0418c0,-2.8842 -1.1458,-5.6503 -3.1852,-7.6898c-2.0395,-2.0394 -4.8056,-3.1852 -7.6898,-3.1852zM10.875,73.375c-2.15087,0 -4.25344,0.6378 -6.04182,1.8328c-1.78839,1.1949 -3.18226,2.8934 -4.00536,4.8805c-0.8231,1.9872 -1.03846,4.1738 -0.61885,6.2833c0.41961,2.1096 1.45536,4.0473 2.97626,5.5682c1.52089,1.5209 3.45863,2.5566 5.56818,2.9762c2.1095,0.4197 4.2961,0.2043 6.2833,-0.6188c1.9871,-0.8231 3.6856,-2.217 4.8805,-4.0054c1.195,-1.7884 1.8328,-3.8909 1.8328,-6.0418c0,-2.8842 -1.1458,-5.6503 -3.1852,-7.6898c-2.0395,-2.0394 -4.8056,-3.1852 -7.6898,-3.1852zM112.375,77h-72.5c-0.9614,0 -1.8834,0.3819 -2.5633,1.0617c-0.6798,0.6799 -1.0617,1.6019 -1.0617,2.5633v7.25c0,0.9614 0.3819,1.8834 1.0617,2.5633c0.6799,0.6798 1.6019,1.0617 2.5633,1.0617h72.5c0.961,0 1.883,-0.3819 2.563,-1.0617c0.68,-0.6799 1.062,-1.6019 1.062,-2.5633v-7.25c0,-0.9614 -0.382,-1.8834 -1.062,-2.5633c-0.68,-0.6798 -1.602,-1.0617 -2.563,-1.0617zM112.375,4.5h-72.5c-0.9614,0 -1.8834,0.38192 -2.5633,1.06174c-0.6798,0.67982 -1.0617,1.60185 -1.0617,2.56326v7.25c0,0.9614 0.3819,1.8834 1.0617,2.5633c0.6799,0.6798 1.6019,1.0617 2.5633,1.0617h72.5c0.961,0 1.883,-0.3819 2.563,-1.0617c0.68,-0.6799 1.062,-1.6019 1.062,-2.5633v-7.25c0,-0.96141 -0.382,-1.88344 -1.062,-2.56326c-0.68,-0.67982 -1.602,-1.06174 -2.563,-1.06174zM112.375,40.75h-72.5c-0.9614,0 -1.8834,0.3819 -2.5633,1.0617c-0.6798,0.6799 -1.0617,1.6019 -1.0617,2.5633v7.25c0,0.9614 0.3819,1.8834 1.0617,2.5633c0.6799,0.6798 1.6019,1.0617 2.5633,1.0617h72.5c0.961,0 1.883,-0.3819 2.563,-1.0617c0.68,-0.6799 1.062,-1.6019 1.062,-2.5633v-7.25c0,-0.9614 -0.382,-1.8834 -1.062,-2.5633c-0.68,-0.6798 -1.602,-1.0617 -2.563,-1.0617z"></path></g></g></svg>