<svg width="89" height="30" viewBox="0 0 89 30" fill="none" xmlns="http://www.w3.org/2000/svg">
<g clip-path="url(#clip0_18_2)">
<path d="M0.83136 1.14C3.13655 1.14 4.10453 2.75 5.14237 4.47L13.6047 19C14.0604 19.7332 14.3279 20.568 14.3831 21.43C14.3831 23.57 11.5789 24.35 9.92239 24.43C8.71862 24.472 7.52195 24.2288 6.42968 23.72L5.75109 24.6C6.14028 26.28 7.69703 28.32 9.8226 28.3C13.5249 28.3 15.4708 24.88 16.9577 22.12L19.7219 17L11.7386 3.25C11.0001 2.02 12.2176 1.13 13.5049 1.11L13.8043 0H1.13074L0.83136 1.14Z" fill="url(#paint0_linear_18_2)"/>
<path d="M68.8295 0.72C69.2761 1.05435 69.8187 1.23501 70.3762 1.23501C70.9338 1.23501 71.4763 1.05435 71.923 0.72L71.434 0C71.1308 0.229562 70.7612 0.353764 70.3812 0.353764C70.0012 0.353764 69.6316 0.229562 69.3284 0L68.8295 0.72ZM72.8211 7.72V1.82H71.5837L69.1588 5.82V1.82H67.9713V7.72H69.1688L71.5837 3.72V7.72H72.7812H72.8211Z" fill="white"/>
<path d="M32.7647 5.88999C32.742 6.13255 32.6241 6.35616 32.437 6.51176C32.25 6.66736 32.0089 6.74225 31.7668 6.71999C31.4126 6.69929 31.0693 6.58921 30.7689 6.39999V3.20999C31.0923 2.94132 31.4966 2.78981 31.9165 2.77999C32.0314 2.77463 32.1461 2.79218 32.2542 2.83163C32.3622 2.87107 32.4613 2.93162 32.5458 3.00977C32.6303 3.08792 32.6984 3.1821 32.7463 3.28685C32.7942 3.39161 32.8208 3.50484 32.8246 3.61999V5.88999H32.7647ZM34.0022 5.75999V3.75999C34.0363 3.4892 34.0081 3.21419 33.9199 2.95597C33.8316 2.69776 33.6856 2.46318 33.493 2.27019C33.3004 2.07719 33.0664 1.93089 32.8087 1.84246C32.551 1.75403 32.2766 1.72582 32.0063 1.75999C31.4288 1.76782 30.8638 1.93008 30.3697 2.22999C30.2797 2.022 30.1163 1.85463 29.9107 1.75999L29.1523 2.45999C29.2588 2.54933 29.3419 2.66354 29.3941 2.79257C29.4463 2.9216 29.4661 3.06151 29.4517 3.19999V9.62999H30.7689V7.55999C31.1617 7.72155 31.5817 7.8064 32.0063 7.80999C32.2775 7.82482 32.5487 7.78171 32.802 7.68351C33.0553 7.58532 33.2849 7.43429 33.4755 7.24044C33.6661 7.04659 33.8134 6.81435 33.9077 6.55912C34.0019 6.30388 34.0409 6.03149 34.0221 5.75999H34.0022Z" fill="white"/>
<path d="M37.924 6.37002C37.7731 6.54002 37.5803 6.66735 37.3649 6.7393C37.1495 6.81125 36.919 6.82529 36.6965 6.78002C36.5361 6.74095 36.3927 6.65047 36.2883 6.52232C36.1838 6.39418 36.1239 6.23537 36.1177 6.07002C36.104 5.84347 36.1803 5.62068 36.3298 5.45021C36.4794 5.27975 36.6901 5.17544 36.9161 5.16002H37.914V6.37002H37.924ZM45.0491 7.73002V1.81002H41.0574V5.47002C41.0885 5.79929 40.9901 6.12771 40.7832 6.38542C40.5764 6.64314 40.2773 6.80982 39.9497 6.85002C39.7655 6.8614 39.5839 6.80128 39.4427 6.68212C39.3015 6.56296 39.2115 6.39391 39.1913 6.21002V3.72002C39.2215 3.45003 39.1906 3.17671 39.1009 2.92031C39.0113 2.66392 38.8652 2.43104 38.6735 2.23894C38.4818 2.04684 38.2494 1.90044 37.9935 1.81061C37.7377 1.72078 37.4649 1.68982 37.1955 1.72002C36.4317 1.70435 35.6928 1.99192 35.1398 2.52002L35.7585 3.31002C36.1081 2.9843 36.5594 2.78996 37.0358 2.76002C37.1446 2.74316 37.2557 2.74902 37.362 2.77723C37.4684 2.80543 37.5679 2.85538 37.6541 2.92393C37.7403 2.99249 37.8114 3.07816 37.863 3.17558C37.9146 3.273 37.9456 3.38005 37.9539 3.49002V4.12002H36.956C36.6986 4.09425 36.4386 4.12388 36.1936 4.20693C35.9485 4.28998 35.724 4.42453 35.535 4.60159C35.346 4.77864 35.197 4.99411 35.0978 5.23356C34.9987 5.47301 34.9518 5.73092 34.9602 5.99002C34.9434 6.24924 34.9851 6.50892 35.0822 6.74977C35.1793 6.99063 35.3293 7.20648 35.521 7.38131C35.7127 7.55614 35.9413 7.68547 36.1897 7.75968C36.4381 7.8339 36.7 7.8511 36.956 7.81002C37.465 7.78949 37.9498 7.58733 38.3231 7.24002C38.5524 7.45989 38.826 7.62807 39.1255 7.73328C39.4249 7.83849 39.7434 7.87829 40.0595 7.85002C40.3756 7.87469 40.6931 7.82753 40.9884 7.71205C41.2837 7.59658 41.5492 7.41577 41.7651 7.18312C41.9809 6.95047 42.1416 6.67199 42.235 6.36843C42.3285 6.06488 42.3524 5.7441 42.3048 5.43002V2.82002H43.9813V7.72002H45.1788L45.0491 7.73002Z" fill="white"/>
<path d="M61.2253 7.73L59.0399 4.61L61.0856 1.82H59.6885L58.1617 4.14H57.4033V1.81H56.2058V7.73H57.3834L57.3933 5.15H58.1418L59.8282 7.73H61.2253Z" fill="white"/>
<path d="M47.5239 6.71H48.5219C48.7534 6.67526 48.9623 6.55129 49.1039 6.36449C49.2456 6.1777 49.3089 5.94286 49.2803 5.71C49.2898 5.60067 49.2773 5.49053 49.2436 5.38612C49.2099 5.28171 49.1556 5.18514 49.0839 5.10214C49.0123 5.01915 48.9247 4.95141 48.8265 4.90294C48.7282 4.85448 48.6212 4.82627 48.5119 4.82H47.514V6.71H47.5239ZM46.3065 7.71V1.81H47.5239V3.81H48.3822C48.6519 3.77467 48.926 3.79699 49.1865 3.8755C49.447 3.954 49.6879 4.0869 49.8934 4.26546C50.0989 4.44401 50.2644 4.66417 50.3789 4.91143C50.4934 5.15869 50.5543 5.42744 50.5576 5.7C50.5586 5.97758 50.5019 6.25233 50.3912 6.50677C50.2805 6.76121 50.1181 6.98976 49.9144 7.17788C49.7107 7.36601 49.4702 7.50958 49.2081 7.59947C48.946 7.68936 48.6681 7.72359 48.3921 7.7H46.2965L46.3065 7.71Z" fill="white"/>
<path d="M55.4275 7.05999L54.9285 6.16999C54.5199 6.52812 54.0112 6.75156 53.4715 6.80999C53.3549 6.82977 53.2355 6.82519 53.1208 6.79653C53.006 6.76788 52.8984 6.71576 52.8047 6.64346C52.711 6.57116 52.6332 6.48023 52.5763 6.37639C52.5193 6.27254 52.4843 6.15801 52.4736 6.03999V3.73999C52.499 3.48361 52.6221 3.2469 52.8173 3.07923C53.0125 2.91156 53.2647 2.82586 53.5214 2.83999C53.9858 2.8774 54.4181 3.0922 54.7289 3.43999L55.3676 2.62999C55.1307 2.33065 54.8262 2.09202 54.4792 1.9338C54.1322 1.77558 53.7526 1.70229 53.3718 1.71999C53.0982 1.70075 52.8235 1.73823 52.565 1.83009C52.3065 1.92195 52.0697 2.06622 51.8693 2.25389C51.6689 2.44156 51.5093 2.6686 51.4003 2.92085C51.2914 3.1731 51.2355 3.44514 51.2362 3.71999V5.99999C51.2428 6.26966 51.3068 6.5348 51.4241 6.77759C51.5414 7.02039 51.7092 7.23521 51.9162 7.40761C52.1233 7.58002 52.3647 7.70603 52.6244 7.77715C52.884 7.84828 53.1559 7.86289 53.4217 7.81999C54.1557 7.81117 54.8628 7.54189 55.4175 7.05999" fill="white"/>
<path d="M66.7339 7.72001V1.82001H65.5363L63.1014 5.85001V1.82001H61.9239V7.72001H63.1014H63.1214L65.5363 3.72001V7.72001H66.7339Z" fill="white"/>
<path d="M29.1922 0H27.7751L26.7772 3.52C26.7534 3.58885 26.7335 3.65896 26.7173 3.73C26.7173 3.81 26.7173 3.86 26.7173 3.91C26.7173 3.96 26.7173 3.98 26.7173 3.99C26.7198 3.96673 26.7198 3.94327 26.7173 3.92C26.7173 3.92 26.7173 3.82 26.7173 3.75C26.7037 3.6816 26.6836 3.61463 26.6574 3.55L24.9809 0H23.5839L26.0787 5.5L25.919 5.9C25.7642 6.20768 25.5254 6.46499 25.2303 6.64202C24.9353 6.81904 24.5962 6.9085 24.2525 6.9L24.4022 7.9C24.9625 7.97262 25.5308 7.85171 26.0133 7.55721C26.4959 7.26271 26.8639 6.81221 27.0566 6.28L29.1922 0Z" fill="white"/>
<path d="M84.876 10.73C85.3226 11.0644 85.8652 11.245 86.4227 11.245C86.9803 11.245 87.5228 11.0644 87.9695 10.73L87.4706 10C87.1674 10.2296 86.7977 10.3538 86.4178 10.3538C86.0378 10.3538 85.6681 10.2296 85.3649 10L84.876 10.73ZM88.8676 17.73V11.83H87.6502L85.2352 15.83V11.83H84.0178V17.73H85.2053L87.6202 13.73V17.73H88.8277H88.8676Z" fill="white"/>
<path d="M82.7704 11.83H81.5729V17.73H82.7704V11.83Z" fill="white"/>
<path d="M77.8706 16.73H78.8685C79.1001 16.6953 79.3089 16.5713 79.4506 16.3845C79.5923 16.1977 79.6555 15.9629 79.6269 15.73C79.6365 15.6207 79.624 15.5106 79.5903 15.4061C79.5565 15.3017 79.5022 15.2052 79.4306 15.1222C79.3589 15.0392 79.2714 14.9714 79.1731 14.923C79.0748 14.8745 78.9679 14.8463 78.8585 14.84H77.8606V16.72L77.8706 16.73ZM76.6531 17.73V11.83H77.8706V13.83H78.7288C78.9993 13.7931 79.2745 13.8143 79.5362 13.8921C79.7979 13.9699 80.0401 14.1026 80.2467 14.2813C80.4534 14.46 80.6198 14.6807 80.7348 14.9287C80.8499 15.1768 80.9111 15.4465 80.9142 15.72C80.9152 15.9976 80.8586 16.2724 80.7478 16.5268C80.6371 16.7812 80.4747 17.0098 80.271 17.1979C80.0673 17.386 79.8268 17.5296 79.5647 17.6195C79.3026 17.7094 79.0248 17.7436 78.7488 17.72H76.6731L76.6531 17.73Z" fill="white"/>
<path d="M29.282 15.9C29.282 16.0098 29.2603 16.1186 29.218 16.2199C29.1758 16.3213 29.1139 16.4132 29.0359 16.4904C28.9579 16.5677 28.8654 16.6286 28.7638 16.6697C28.6622 16.7108 28.5534 16.7313 28.4438 16.73H28.3839C28.2482 16.7435 28.1113 16.7211 27.9869 16.6649C27.8626 16.6088 27.7551 16.5209 27.6754 16.41V13.33V13.21C27.7703 13.0958 27.8894 13.0042 28.024 12.942C28.1587 12.8797 28.3055 12.8483 28.4537 12.85C28.5586 12.8473 28.6629 12.8654 28.7608 12.9032C28.8587 12.9409 28.9482 12.9976 29.0242 13.0701C29.1002 13.1425 29.1612 13.2293 29.2037 13.3253C29.2462 13.4214 29.2694 13.5249 29.272 13.63C29.272 13.63 29.272 13.68 29.272 13.71V15.91L29.282 15.9ZM26.4679 13.16V13.23V16.4C26.3881 16.5109 26.2807 16.5988 26.1563 16.6549C26.032 16.7111 25.8951 16.7335 25.7594 16.72C25.6506 16.7268 25.5415 16.7119 25.4384 16.6764C25.3353 16.6408 25.2402 16.5852 25.1587 16.5127C25.0771 16.4402 25.0106 16.3523 24.963 16.2541C24.9153 16.1558 24.8876 16.049 24.8812 15.94V13.64C24.8674 13.4309 24.9359 13.2248 25.0721 13.0658C25.2084 12.9069 25.4014 12.8079 25.6097 12.79H25.6795C25.8303 12.788 25.9796 12.8202 26.1161 12.8843C26.2526 12.9484 26.3729 13.0426 26.4679 13.16ZM30.5294 15.78V13.78C30.5715 13.5199 30.5537 13.2537 30.4774 13.0015C30.4012 12.7494 30.2685 12.518 30.0894 12.3251C29.9104 12.1322 29.6897 11.9828 29.4443 11.8883C29.1989 11.7939 28.9352 11.7568 28.6733 11.78C28.3246 11.7745 27.9805 11.8607 27.6754 12.03V10.86H26.4679V12C26.1628 11.8307 25.8187 11.7445 25.47 11.75C25.2081 11.7268 24.9444 11.7639 24.6989 11.8583C24.4535 11.9528 24.2329 12.1022 24.0538 12.2951C23.8748 12.488 23.7421 12.7194 23.6658 12.9715C23.5896 13.2237 23.5718 13.4899 23.6138 13.75V15.75C23.5851 16.022 23.6165 16.2969 23.7059 16.5553C23.7953 16.8137 23.9405 17.0492 24.131 17.245C24.3216 17.4407 24.553 17.5919 24.8085 17.6879C25.0641 17.7838 25.3377 17.8221 25.6097 17.8C25.9188 17.7925 26.221 17.7065 26.4878 17.55V19.61H27.7053V17.57C27.9722 17.7265 28.2743 17.8125 28.5835 17.82C28.8509 17.841 29.1197 17.8038 29.3714 17.7107C29.6231 17.6176 29.8517 17.471 30.0414 17.2809C30.2311 17.0908 30.3774 16.8618 30.4702 16.6096C30.5631 16.3574 30.6003 16.088 30.5793 15.82V15.82L30.5294 15.78Z" fill="white"/>
<path d="M34.6308 13.5V14.23H32.7647V13.59C32.7705 13.4679 32.8016 13.3483 32.8561 13.2389C32.9105 13.1294 32.9872 13.0326 33.0811 12.9545C33.175 12.8764 33.2841 12.8188 33.4014 12.7853C33.5188 12.7518 33.6418 12.7432 33.7627 12.76C33.9739 12.7462 34.1822 12.8159 34.3426 12.9543C34.5031 13.0927 34.603 13.2886 34.6209 13.5M36.008 17L35.4891 16.07C35.0357 16.4698 34.4562 16.6964 33.8525 16.71C33.7187 16.7205 33.5843 16.7019 33.4585 16.6554C33.3326 16.6088 33.2184 16.5355 33.1235 16.4405C33.0287 16.3454 32.9555 16.2309 32.9091 16.1048C32.8626 15.9787 32.844 15.844 32.8545 15.71V15.24H35.8982V13.8C35.9282 13.5146 35.893 13.2262 35.7952 12.9565C35.6974 12.6868 35.5396 12.443 35.3338 12.2435C35.128 12.044 34.8796 11.8941 34.6073 11.8051C34.3351 11.7162 34.0463 11.6905 33.7627 11.73C33.4706 11.6967 33.1747 11.7285 32.8963 11.8232C32.6179 11.9178 32.3638 12.0728 32.1521 12.2773C31.9405 12.4817 31.7765 12.7305 31.672 13.0059C31.5674 13.2812 31.5248 13.5763 31.5473 13.87V15.87C31.5292 16.1532 31.5746 16.4368 31.6803 16.7001C31.7859 16.9633 31.949 17.1996 32.1577 17.3914C32.3663 17.5832 32.6152 17.7258 32.886 17.8086C33.1569 17.8914 33.4428 17.9124 33.7227 17.87C34.5583 17.8502 35.3616 17.543 35.998 17V17H36.008Z" fill="white"/>
<path d="M38.393 16.73C38.7371 16.2706 38.9069 15.7034 38.872 15.13V12.84H40.5485V16.73H38.393ZM41.746 16.73V11.83H37.6944V15.09C37.7348 15.448 37.6478 15.8087 37.4488 16.1087C37.2499 16.4087 36.9516 16.6287 36.6067 16.73H36.5069V19.17H37.6745V17.74H41.227V19.17H42.4245V16.73H41.746Z" fill="white"/>
<path d="M75.4058 17.73V11.83H74.2083V14.13H71.7833V11.83H70.5958V17.73H71.7833V15.14H74.2083V17.73H75.4058Z" fill="white"/>
<path d="M51.9247 15.91C51.902 16.1526 51.7841 16.3762 51.5971 16.5318C51.41 16.6874 51.1689 16.7623 50.9268 16.74C50.5487 16.7314 50.1798 16.6208 49.8591 16.42V13.24C50.1828 12.972 50.5869 12.8206 51.0067 12.81C51.1215 12.8047 51.2363 12.8222 51.3443 12.8616C51.4523 12.9011 51.5515 12.9616 51.6359 13.0398C51.7204 13.1179 51.7886 13.2121 51.8364 13.3169C51.8843 13.4216 51.9109 13.5349 51.9148 13.65V15.91H51.9247ZM53.1622 15.78V13.78C53.1963 13.5092 53.1681 13.2342 53.0799 12.976C52.9916 12.7178 52.8456 12.4832 52.653 12.2902C52.4604 12.0972 52.2264 11.9509 51.9687 11.8625C51.711 11.7741 51.4366 11.7458 51.1663 11.78C50.5888 11.7878 50.0238 11.9501 49.5297 12.25C49.4353 12.044 49.2683 11.8802 49.0607 11.79L48.3023 12.49C48.4082 12.5799 48.4908 12.6942 48.5429 12.8231C48.595 12.952 48.6152 13.0916 48.6017 13.23V19.7H49.8191V17.58C50.212 17.7416 50.632 17.8264 51.0566 17.83C51.3262 17.8485 51.5966 17.8098 51.8504 17.7167C52.1041 17.6235 52.3354 17.4779 52.5293 17.2892C52.7232 17.1006 52.8753 16.8732 52.9758 16.6218C53.0762 16.3704 53.1227 16.1006 53.1123 15.83V15.83L53.1622 15.78Z" fill="white"/>
<path d="M57.0541 16.38C56.605 16.96 55.2578 17.04 55.2478 16.08C55.2341 15.8534 55.3104 15.6306 55.4599 15.4602C55.6095 15.2897 55.8202 15.1854 56.0462 15.17H57.0441V16.38H57.0541ZM64.1892 17.74V11.83H60.1975V15.49C60.2285 15.8192 60.1302 16.1477 59.9233 16.4054C59.7164 16.6631 59.4174 16.8298 59.0898 16.87C58.9056 16.8814 58.724 16.8212 58.5828 16.7021C58.4416 16.5829 58.3516 16.4139 58.3314 16.23V13.73C58.3615 13.46 58.3306 13.1867 58.241 12.9303C58.1514 12.6739 58.0053 12.441 57.8136 12.2489C57.6219 12.0568 57.3895 11.9104 57.1336 11.8206C56.8777 11.7307 56.605 11.6998 56.3356 11.73C55.5718 11.7143 54.8329 12.0019 54.2799 12.53L54.9185 13.32C55.2681 12.9943 55.7194 12.7999 56.1959 12.77C56.3046 12.7531 56.4157 12.759 56.5221 12.7872C56.6285 12.8154 56.7279 12.8653 56.8141 12.9339C56.9003 13.0024 56.9715 13.0881 57.0231 13.1855C57.0747 13.2829 57.1056 13.39 57.1139 13.5V14.13H56.116C55.8586 14.1042 55.5987 14.1338 55.3536 14.2169C55.1085 14.2999 54.884 14.4345 54.695 14.6115C54.5061 14.7886 54.357 15.0041 54.2579 15.2435C54.1587 15.483 54.1118 15.7409 54.1202 16C54.1034 16.2592 54.1452 16.5189 54.2422 16.7597C54.3393 17.0006 54.4893 17.2164 54.681 17.3913C54.8728 17.5661 55.1013 17.6954 55.3497 17.7696C55.5982 17.8438 55.8601 17.8611 56.116 17.82C56.625 17.7994 57.1099 17.5973 57.4832 17.25C57.7125 17.4698 57.986 17.638 58.2855 17.7432C58.585 17.8484 58.9034 17.8882 59.2195 17.86C59.5356 17.8846 59.8531 17.8375 60.1485 17.722C60.4438 17.6065 60.7093 17.4257 60.9251 17.1931C61.141 16.9604 61.3016 16.6819 61.3951 16.3784C61.4885 16.0748 61.5124 15.754 61.4649 15.44V12.84H63.1513V17.74H64.3488H64.1892Z" fill="white"/>
<path d="M66.6939 16.73H67.6918C67.9234 16.6953 68.1322 16.5713 68.2739 16.3845C68.4156 16.1977 68.4789 15.9629 68.4503 15.73C68.4598 15.6215 68.4477 15.5121 68.4146 15.4083C68.3814 15.3045 68.328 15.2084 68.2574 15.1256C68.1868 15.0427 68.1004 14.9748 68.0033 14.9257C67.9062 14.8767 67.8003 14.8476 67.6918 14.84H66.6939V16.72V16.73ZM65.4765 17.73V11.83H66.6939V13.83H67.5521C67.8188 13.8007 68.0886 13.8276 68.3442 13.9089C68.5999 13.9901 68.8358 14.124 69.0368 14.3019C69.2379 14.4799 69.3996 14.6979 69.5117 14.9421C69.6238 15.1863 69.6837 15.4513 69.6877 15.72C69.6887 15.9976 69.632 16.2724 69.5213 16.5268C69.4105 16.7812 69.2482 17.0098 69.0445 17.1979C68.8408 17.386 68.6002 17.5296 68.3382 17.6195C68.0761 17.7094 67.7982 17.7436 67.5222 17.72H65.4266L65.4765 17.73Z" fill="white"/>
<path d="M46.2466 13.5V14.23H44.4304V13.59C44.4362 13.4679 44.4673 13.3483 44.5217 13.2389C44.5762 13.1295 44.6528 13.0326 44.7467 12.9545C44.8406 12.8764 44.9497 12.8188 45.0671 12.7853C45.1844 12.7518 45.3074 12.7432 45.4283 12.76C45.6396 12.7462 45.8478 12.8159 46.0083 12.9543C46.1688 13.0927 46.2687 13.2886 46.2865 13.5M47.6137 17L47.0948 16.07C46.6415 16.4698 46.0619 16.6964 45.4582 16.71C45.3245 16.7205 45.1901 16.7019 45.0643 16.6554C44.9384 16.6088 44.8241 16.5355 44.7293 16.4405C44.6344 16.3454 44.5613 16.2309 44.5149 16.1048C44.4684 15.9787 44.4498 15.844 44.4603 15.71V15.24H47.5239V13.8C47.5522 13.5203 47.5179 13.2378 47.4234 12.9731C47.329 12.7084 47.1768 12.4681 46.9779 12.2698C46.7791 12.0715 46.5386 11.9201 46.2739 11.8267C46.0093 11.7334 45.7272 11.7003 45.4483 11.73C45.1562 11.6968 44.8603 11.7286 44.5819 11.8232C44.3035 11.9178 44.0494 12.0729 43.8377 12.2773C43.6261 12.4818 43.4621 12.7305 43.3576 13.0059C43.253 13.2812 43.2104 13.5763 43.2329 13.87V15.87C43.2148 16.1532 43.2602 16.4368 43.3659 16.7001C43.4715 16.9634 43.6346 17.1996 43.8433 17.3914C44.0519 17.5832 44.3008 17.7258 44.5716 17.8086C44.8425 17.8914 45.1284 17.9124 45.4083 17.87C46.2199 17.8353 46.9964 17.529 47.6137 17Z" fill="white"/>
<path d="M28.6833 21.85H27.356L26.1485 26.44C26.1461 26.1552 26.1024 25.8722 26.0188 25.6L25.0209 21.85H23.6338C23.6338 21.85 25.2105 26.85 25.6296 27.72C25.5807 28.0882 25.4038 28.4274 25.13 28.678C24.8563 28.9285 24.5032 29.0744 24.1327 29.09L24.2026 30C24.7286 30.042 25.2531 29.9036 25.6902 29.6074C26.1272 29.3112 26.4507 28.8748 26.6076 28.37L28.6833 21.85Z" fill="white"/>
<path d="M34.2616 27.75V21.85H33.0641V24.15H30.6292V21.85H29.4517V27.75H30.6292V25.16H33.0641V27.75H34.2616Z" fill="white"/>
<path d="M40.309 27.75V21.85H39.1115L36.6865 25.87V21.85H35.499V27.75H36.6865H36.6965L39.1115 23.74V27.75H40.309Z" fill="white"/>
<path d="M42.7439 26.72H43.7418C43.848 26.7221 43.9535 26.7014 44.0511 26.6594C44.1487 26.6175 44.2363 26.5552 44.3081 26.4767C44.3798 26.3981 44.434 26.3052 44.4672 26.2041C44.5003 26.1029 44.5116 25.9959 44.5002 25.89C44.507 25.7981 44.4956 25.7056 44.4666 25.6181C44.4377 25.5306 44.3917 25.4496 44.3315 25.3799C44.2712 25.3102 44.1978 25.2532 44.1154 25.212C44.0331 25.1708 43.9434 25.1464 43.8516 25.14H42.7439V26.71V26.72ZM42.7439 22.87V24.14H43.6221C43.7061 24.148 43.7909 24.137 43.8703 24.108C43.9496 24.079 44.0216 24.0327 44.0808 23.9724C44.14 23.912 44.1851 23.8392 44.2128 23.7593C44.2405 23.6793 44.25 23.5942 44.2408 23.51C44.2505 23.3606 44.205 23.2127 44.113 23.0947C44.021 22.9767 43.8889 22.8967 43.7418 22.87H42.7439V22.87ZM41.5464 27.74V21.84H43.652C45.099 21.84 45.548 22.72 45.5281 23.4C45.5312 23.6445 45.4654 23.8849 45.3383 24.0937C45.2112 24.3024 45.028 24.471 44.8096 24.58C45.1041 24.6779 45.3597 24.8675 45.5392 25.1211C45.7186 25.3747 45.8127 25.6791 45.8075 25.99C45.7999 26.246 45.7389 26.4976 45.6282 26.7284C45.5175 26.9592 45.3597 27.1642 45.165 27.3301C44.9703 27.496 44.743 27.6191 44.4979 27.6914C44.2527 27.7638 43.9951 27.7837 43.7418 27.75H41.5464V27.74Z" fill="white"/>
<path d="M68.3305 21.85V22.86H69.8174V27.76H69.8972H71.0149H71.0947V22.86H72.5816V21.85H68.3305Z" fill="white"/>
<path d="M78.1101 21.85V22.86H79.597V27.76H79.6768H80.7945H80.8644V22.86H82.3513V21.85H78.1101Z" fill="white"/>
<path d="M67.4423 27.75V21.85H66.2449L63.8199 25.87V21.85H62.6324V27.75H63.8199H63.8299L66.2449 23.74V27.75H67.4423Z" fill="white"/>
<path d="M55.3875 25.92C55.3647 26.1626 55.2469 26.3862 55.0598 26.5418C54.8727 26.6974 54.6317 26.7723 54.3896 26.75C54.0115 26.7414 53.6426 26.6309 53.3218 26.43V23.24C53.6452 22.9713 54.0495 22.8198 54.4694 22.81C54.5843 22.8047 54.699 22.8222 54.8071 22.8617C54.9151 22.9011 55.0142 22.9617 55.0987 23.0398C55.1832 23.1179 55.2513 23.2121 55.2992 23.3169C55.3471 23.4216 55.3737 23.5349 55.3775 23.65V25.92H55.3875ZM56.6249 25.79V23.79C56.659 23.5192 56.6309 23.2442 56.5426 22.986C56.4544 22.7278 56.3084 22.4932 56.1158 22.3002C55.9232 22.1072 55.6891 21.9609 55.4314 21.8725C55.1738 21.7841 54.8993 21.7559 54.6291 21.79C54.0515 21.7979 53.4865 21.9601 52.9925 22.26C52.8989 22.0535 52.7316 21.8894 52.5235 21.8L51.7651 22.5C51.8716 22.5894 51.9547 22.7036 52.0069 22.8326C52.0591 22.9616 52.0788 23.1015 52.0645 23.24V29.7H53.2919V27.59C53.6847 27.7516 54.1047 27.8364 54.5293 27.84C54.8065 27.8652 55.0859 27.8299 55.3481 27.7365C55.6104 27.6431 55.8494 27.4938 56.0486 27.299C56.2477 27.1041 56.4024 26.8683 56.5019 26.6078C56.6014 26.3473 56.6434 26.0683 56.6249 25.79Z" fill="white"/>
<path d="M61.854 27.07L61.3551 26.18C60.9465 26.5381 60.4378 26.7616 59.8981 26.82C59.7815 26.8398 59.6621 26.8352 59.5473 26.8066C59.4326 26.7779 59.325 26.7258 59.2313 26.6535C59.1376 26.5812 59.0598 26.4903 59.0028 26.3864C58.9459 26.2826 58.9109 26.168 58.9002 26.05V23.76C58.9255 23.5036 59.0486 23.2669 59.2438 23.0993C59.439 22.9316 59.6913 22.8459 59.948 22.86C60.4124 22.8974 60.8447 23.1122 61.1555 23.46L61.7942 22.65C61.5573 22.3507 61.2528 22.112 60.9058 21.9538C60.5587 21.7956 60.1792 21.7223 59.7983 21.74C59.5247 21.7208 59.2501 21.7583 58.9916 21.8501C58.7331 21.942 58.4962 22.0862 58.2959 22.2739C58.0955 22.4616 57.9358 22.6886 57.8269 22.9409C57.718 23.1931 57.6621 23.4652 57.6628 23.74V26C57.6655 26.2703 57.7261 26.5368 57.8403 26.7816C57.9546 27.0264 58.1199 27.2438 58.3251 27.4192C58.5304 27.5945 58.7708 27.7237 59.0301 27.798C59.2894 27.8723 59.5615 27.8901 59.8283 27.85C60.5623 27.8412 61.2695 27.5719 61.8241 27.09" fill="white"/>
<path d="M76.264 23.5V24.23H74.4378V23.6C74.4436 23.4778 74.4747 23.3582 74.5292 23.2488C74.5836 23.1394 74.6602 23.0426 74.7541 22.9645C74.848 22.8864 74.9571 22.8288 75.0745 22.7953C75.1918 22.7618 75.3149 22.7532 75.4357 22.77C75.647 22.7561 75.8552 22.8259 76.0157 22.9643C76.1762 23.1026 76.2761 23.2986 76.2939 23.51M77.6711 27.05L77.1422 26.11C76.6888 26.5097 76.1093 26.7364 75.5056 26.75C75.3719 26.7605 75.2374 26.7419 75.1116 26.6953C74.9858 26.6488 74.8715 26.5755 74.7766 26.4804C74.6818 26.3854 74.6086 26.2709 74.5622 26.1448C74.5158 26.0187 74.4972 25.884 74.5077 25.75V25.26H77.5713V23.82C77.5998 23.5393 77.5653 23.2559 77.4703 22.9903C77.3753 22.7248 77.2222 22.484 77.0222 22.2855C76.8221 22.087 76.5803 21.9358 76.3145 21.8432C76.0486 21.7505 75.7654 21.7187 75.4856 21.75C75.1935 21.7167 74.8977 21.7485 74.6193 21.8431C74.3409 21.9377 74.0868 22.0928 73.8751 22.2973C73.6634 22.5017 73.4995 22.7505 73.3949 23.0258C73.2904 23.3012 73.2478 23.5962 73.2702 23.89V25.89C73.2522 26.1731 73.2976 26.4568 73.4032 26.72C73.5088 26.9833 73.672 27.2195 73.8806 27.4114C74.0893 27.6032 74.3382 27.7457 74.609 27.8286C74.8798 27.9114 75.1657 27.9324 75.4457 27.89C76.2656 27.8494 77.0486 27.5363 77.6711 27V27V27.05Z" fill="white"/>
<path d="M49.7294 23.5V24.23H47.9231V23.6C47.9289 23.4778 47.96 23.3582 48.0145 23.2488C48.0689 23.1394 48.1456 23.0426 48.2394 22.9645C48.3333 22.8864 48.4424 22.8288 48.5598 22.7953C48.6771 22.7618 48.8002 22.7532 48.921 22.77C49.1323 22.7561 49.3406 22.8259 49.501 22.9643C49.6615 23.1026 49.7614 23.2986 49.7792 23.51M51.1464 27.05L50.6075 26.11C50.1542 26.5097 49.5746 26.7364 48.9709 26.75C48.8372 26.7605 48.7028 26.7419 48.577 26.6953C48.4511 26.6488 48.3368 26.5755 48.242 26.4804C48.1471 26.3854 48.074 26.2709 48.0275 26.1448C47.9811 26.0187 47.9625 25.884 47.973 25.75V25.26H51.0366V23.82C51.0649 23.5403 51.0306 23.2578 50.9361 22.9931C50.8417 22.7283 50.6895 22.4881 50.4906 22.2898C50.2918 22.0914 50.0513 21.9401 49.7866 21.8467C49.522 21.7533 49.2399 21.7203 48.961 21.75C48.6689 21.7167 48.373 21.7485 48.0946 21.8431C47.8162 21.9377 47.5621 22.0928 47.3504 22.2973C47.1388 22.5017 46.9748 22.7505 46.8703 23.0258C46.7657 23.3012 46.7231 23.5962 46.7456 23.89V25.89C46.7275 26.1731 46.7729 26.4568 46.8786 26.72C46.9842 26.9833 47.1473 27.2195 47.356 27.4114C47.5646 27.6032 47.8135 27.7457 48.0843 27.8286C48.3552 27.9114 48.6411 27.9324 48.921 27.89C49.727 27.8408 50.4947 27.5281 51.1065 27V27L51.1464 27.05Z" fill="white"/>
</g>
<defs>
<linearGradient id="paint0_linear_18_2" x1="10.2717" y1="0" x2="10.2717" y2="28.32" gradientUnits="userSpaceOnUse">
<stop stop-color="#E5097F"/>
<stop offset="0.48" stop-color="#E31E24"/>
<stop offset="1" stop-color="#FFED00"/>
</linearGradient>
<clipPath id="clip0_18_2">
<rect width="87.9964" height="30" fill="white" transform="translate(0.83136)"/>
</clipPath>
</defs>
</svg>
